:SAMPLES-PER-SECOND 30
:FULLY-SPECIFIED
:DEGREES
1435
root  7.40236 39.2581 -15.0354 -5.76254 -79.8115 -0.369202
RightUpLeg  -1.59287 -8.38906 -1.9048
RightLeg  16.4048 11.2428 3.03084
RightFoot  -9.22792 -0.0403246 -1.20238
RightToes  -8.14909e-010 0 -3.6325e-017
Spine  8.19734 -0.680338 10.0154
Spine1  4.13493 1.00859 -3.20621
HEad  -11.6108 16.1601 -10.2784
LeftShoulder1  -0.0833158 3.7302 -30.6662
LeftArm  13.9678 -19.0712 -56.8803
LeftForeArm  15.4972 -25.9488 -4.71182
LeftHand  -0.0581856 4.87723 9.35164
RightShoulder  -0.516178 -5.00387 27.59
RightArm  11.3065 -5.45293 36.3149
RightForeArm  17.0072 2.59131 5.74833
RightHand  -0.026531 2.85779 -0.586551
LeftUpLeg  -9.5385 2.63243 3.96333
LeftLeg  28.3301 2.32719 1.68479
LeftFoot  -8.21571 0.226424 -6.52093
LeftToes  1.648e-009 -9.21574e-011 2.55256e-011
1436
root  8.04129 39.2459 -14.9898 -4.80171 -80.1223 -1.30945
RightUpLeg  -2.60086 -8.50087 -1.93204
RightLeg  16.1786 11.6922 3.27826
RightFoot  -8.17768 -0.0328717 -0.817189
RightToes  -8.14909e-010 0 -3.6325e-017
Spine  7.71218 -1.01593 8.92511
Spine1  4.26149 0.369707 -1.82366
HEad  -11.7421 17.2443 -9.89597
LeftShoulder1  -0.10623 3.79298 -30.6345
LeftArm  13.8295 -18.6196 -57.4865
LeftForeArm  16.5537 -28.3047 -5.21662
LeftHand  -0.07834 4.62234 9.30463
RightShoulder  -0.526126 -5.03717 27.484
RightArm  11.4422 -7.10481 34.6082
RightForeArm  15.5546 3.4218 5.61661
RightHand  -0.0498636 3.44807 -0.912252
LeftUpLeg  -7.36327 2.01355 4.8474
LeftLeg  31.0839 2.29076 1.82944
LeftFoot  -9.09338 0.187945 -6.7756
LeftToes  1.648e-009 -9.21574e-011 2.55256e-011
1437
root  8.68194 39.235 -14.9385 -4.41411 -80.0533 -1.65778
RightUpLeg  -3.61703 -8.58662 -2.06319
RightLeg  15.9932 11.7806 3.38617
RightFoot  -7.12546 -0.0343821 -0.378123
RightToes  -8.14909e-010 0 -3.6325e-017
Spine  7.02746 -1.39963 8.03403
Spine1  4.68034 -0.139546 -1.27549
HEad  -11.4395 17.6472 -8.76837
LeftShoulder1  -0.125447 3.85004 -30.0839
LeftArm  14.3788 -18.6234 -58.8418
LeftForeArm  17.8996 -28.9913 -5.30297
LeftHand  -0.070554 4.6319 8.29009
RightShoulder  -0.646216 -5.37004 27.9278
RightArm  10.8434 -8.68957 33.3429
RightForeArm  13.8179 4.69643 5.20129
RightHand  -0.0246728 4.0679 -0.570056
LeftUpLeg  -5.05969 1.35659 5.56997
LeftLeg  32.9384 2.25867 1.9211
LeftFoot  -9.47451 0.158637 -6.26219
LeftToes  1.648e-009 -9.21574e-011 2.55256e-011
1438
root  9.35316 39.1961 -14.8623 -3.89078 -79.4596 -2.31628
RightUpLeg  -4.48062 -8.68765 -2.24815
RightLeg  15.8755 11.4249 3.39485
RightFoot  -6.1441 -0.0480366 0.137444
RightToes  -8.14909e-010 0 -3.6325e-017
Spine  6.65529 -1.89622 7.05467
Spine1  4.89986 -0.825742 -0.447599
HEad  -10.6217 16.9097 -7.68805
LeftShoulder1  -0.163693 3.95177 -30.4153
LeftArm  15.9959 -18.7053 -59.6063
LeftForeArm  18.9829 -28.7493 -5.18671
LeftHand  -0.081729 4.40368 7.44396
RightShoulder  -0.666994 -5.42981 27.9389
RightArm  10.0631 -10.4227 32.8679
RightForeArm  11.4171 5.85011 4.81955
RightHand  -0.0894755 4.07462 -1.36888
LeftUpLeg  -2.64318 0.54543 6.36247
LeftLeg  34.1388 1.99676 1.80396
LeftFoot  -9.96811 0.134075 -6.19451
LeftToes  1.648e-009 -9.21574e-011 2.55256e-011
1439
root  10.0589 39.1304 -14.7942 -3.25008 -78.9371 -3.23767
RightUpLeg  -5.32855 -8.6084 -2.30117
RightLeg  15.8889 10.8913 3.26247
RightFoot  -5.22893 -0.0741531 0.727184
RightToes  -8.14909e-010 0 -3.6325e-017
Spine  6.77875 -2.24519 6.1397
Spine1  4.96877 -1.33176 0.36095
HEad  -10.5805 16.4219 -7.57593
LeftShoulder1  -0.211125 4.08163 -30.4099
LeftArm  17.9443 -18.8257 -60.7806
LeftForeArm  19.1169 -27.3253 -4.83917
LeftHand  -0.0274969 5.27867 6.26406
RightShoulder  -0.69223 -5.49803 28.0362
RightArm  8.69703 -11.8826 33.1639
RightForeArm  10.4844 6.96517 4.26037
RightHand  -0.141176 4.10711 -1.99813
LeftUpLeg  -0.248046 0.373778 7.45867
LeftLeg  34.8262 1.15002 1.21268
LeftFoot  -10.2472 0.117255 -5.85852
LeftToes  1.648e-009 -9.21574e-011 2.55256e-011
1440
root  10.812 39.0573 -14.7076 -2.92024 -78.1328 -3.5788
RightUpLeg  -6.55823 -8.58919 -2.50807
RightLeg  16.0194 10.1896 3.12102
RightFoot  -4.15324 -0.10208 1.17091
RightToes  -8.14909e-010 0 -3.6325e-017
Spine  6.64307 -2.45762 5.48196
Spine1  5.07244 -1.63622 0.696227
HEad  -10.4829 14.1952 -7.07907
LeftShoulder1  -0.21781 4.09672 -30.578
LeftArm  21.5908 -19.2946 -61.9139
LeftForeArm  16.9134 -24.38 -4.37457
LeftHand  -0.0101752 5.71045 5.33775
RightShoulder  -0.689579 -5.49113 28.0193
RightArm  7.73769 -12.8037 34.1245
RightForeArm  9.51286 7.24428 3.95188
RightHand  -0.157309 4.22877 -2.17644
LeftUpLeg  1.61185 -0.00508717 8.34778
LeftLeg  34.9764 0.379077 0.638351
LeftFoot  -10.2562 0.115071 -5.66843
LeftToes  1.648e-009 -9.21574e-011 2.55256e-011
1441
root  11.6071 38.9777 -14.5929 -2.7455 -76.7966 -3.79449
RightUpLeg  -7.6345 -8.7354 -2.91068
RightLeg  15.9854 9.2066 2.89488
RightFoot  -3.04898 -0.151929 1.81078
RightToes  -8.14909e-010 0 -3.6325e-017
Spine  6.80898 -2.73053 4.71794
Spine1  4.76985 -2.07844 1.29623
HEad  -10.5752 12.8146 -7.1834
LeftShoulder1  -0.250165 4.17341 -31.2388
LeftArm  23.4263 -19.6099 -62.3753
LeftForeArm  16.6492 -20.7029 -5.14277
LeftHand  0.0219196 6.83343 4.38878
RightShoulder  -0.659108 -5.41313 27.8253
RightArm  6.87856 -13.5313 35.5031
RightForeArm  9.86613 7.40146 3.68509
RightHand  -0.124395 4.50895 -1.74582
LeftUpLeg  3.11859 -0.841348 9.05279
LeftLeg  34.5992 -0.189252 0.21236
LeftFoot  -10.351 0.113847 -5.99303
LeftToes  1.648e-009 -9.21574e-011 2.55256e-011
1442
root  12.475 38.8574 -14.4624 -3.16652 -75.3427 -3.54144
RightUpLeg  -8.69203 -9.08445 -3.52973
RightLeg  16.0266 8.17114 2.66724
RightFoot  -1.90483 -0.205815 2.33569
RightToes  -8.14909e-010 0 -3.6325e-017
Spine  7.23982 -2.8531 4.29155
Spine1  4.54245 -2.19234 1.15941
HEad  -10.6998 10.0265 -6.96452
LeftShoulder1  -0.221431 4.09799 -31.1405
LeftArm  17.5438 -19.9988 -63.0571
LeftForeArm  24.3367 -15.3918 -8.28743
LeftHand  0.0217863 7.55787 3.03249
RightShoulder  -0.66611 -5.42171 28.0367
RightArm  6.6664 -13.621 36.9895
RightForeArm  10.5804 7.55356 3.69641
RightHand  -0.0729219 4.49076 -1.14009
LeftUpLeg  4.42865 -1.666 9.51496
LeftLeg  33.7384 -1.03903 -0.399413
LeftFoot  -10.0315 0.131003 -6.13962
LeftToes  1.648e-009 -9.21574e-011 2.55256e-011
1443
root  13.4039 38.7188 -14.3054 -3.40077 -74.0054 -3.2702
RightUpLeg  -10.0503 -9.48894 -4.24537
RightLeg  16.0634 7.38083 2.48499
RightFoot  -0.557975 -0.280975 2.93523
RightToes  -8.14909e-010 0 -3.6325e-017
Spine  7.52531 -2.83373 4.28392
Spine1  4.39005 -2.06062 0.382605
HEad  -10.7906 7.74734 -6.75363
LeftShoulder1  -0.242342 4.15514 -31.0795
LeftArm  10.0688 -20.126 -62.9029
LeftForeArm  32.0805 -9.9168 -10.658
LeftHand  0.0501294 8.57609 3.33647
RightShoulder  -0.692257 -5.48365 28.2876
RightArm  6.4984 -12.9798 38.863
RightForeArm  12.5022 7.68652 3.75646
RightHand  -0.0515454 3.86942 -0.914565
LeftUpLeg  5.17905 -2.59447 9.60052
LeftLeg  32.5189 -2.2384 -1.18699
LeftFoot  -9.70603 0.152686 -6.80032
LeftToes  1.648e-009 -9.21574e-011 2.55256e-011
1444
root  14.4159 38.5485 -14.1006 -3.95306 -72.6261 -2.50061
RightUpLeg  -11.6444 -9.89378 -5.20324
RightLeg  16.0678 6.59723 2.17948
RightFoot  0.893349 -0.406861 3.84552
RightToes  -8.14909e-010 0 -3.6325e-017
Spine  7.60927 -2.63765 4.45076
Spine1  4.50985 -1.70357 -0.499079
HEad  -10.9753 5.44432 -6.36272
LeftShoulder1  -0.230558 4.12453 -30.992
LeftArm  5.12801 -19.5531 -62.4036
LeftForeArm  36.4899 -5.96741 -11.1547
LeftHand  0.0339966 8.65472 2.77376
RightShoulder  -0.688913 -5.46814 28.3865
RightArm  6.89201 -12.0696 40.6218
RightForeArm  13.3584 8.41646 4.06584
RightHand  -0.0331177 3.53577 -0.683409
LeftUpLeg  5.69256 -3.56855 9.22534
LeftLeg  30.4567 -4.44858 -2.47518
LeftFoot  -12.0863 -0.00593599 -10.0888
LeftToes  1.648e-009 -9.21574e-011 2.55256e-011
1445
root  15.4515 38.4193 -13.8632 -4.85291 -71.6802 -1.38544
RightUpLeg  -12.764 -10.1302 -6.33088
RightLeg  15.0461 6.08538 1.77938
RightFoot  2.81767 -0.602143 4.99911
RightToes  -8.14909e-010 0 -3.6325e-017
Spine  7.53413 -2.06168 4.48195
Spine1  4.89494 -1.02961 -1.59431
HEad  -11.1244 3.3588 -6.0121
LeftShoulder1  -0.188791 4.01423 -30.7963
LeftArm  2.06814 -18.4256 -61.6152
LeftForeArm  39.1147 -3.96826 -10.6531
LeftHand  0.00891494 9.36587 1.61503
RightShoulder  -0.654673 -5.38984 28.0127
RightArm  7.42956 -10.689 42.4914
RightForeArm  14.874 9.54063 4.36109
RightHand  0.0602393 4.15072 0.481337
LeftUpLeg  6.16034 -3.75262 8.29498
LeftLeg  27.4617 -5.91749 -3.00769
LeftFoot  -16.1705 -0.355235 -11.0681
LeftToes  1.648e-009 -9.21574e-011 2.55256e-011
1446
root  16.5529 38.3147 -13.5976 -7.23212 -70.6975 1.03302
RightUpLeg  -13.2755 -10.8608 -8.11159
RightLeg  13.3027 6.06016 1.48345
RightFoot  4.96923 -0.866837 6.27292
RightToes  -8.14909e-010 0 -3.6325e-017
Spine  8.244 -1.56074 3.92103
Spine1  4.80341 -0.477805 -2.62853
HEad  -11.0442 1.87799 -6.31514
LeftShoulder1  -0.271057 4.22458 -31.5011
LeftArm  0.695686 -16.8284 -59.3847
LeftForeArm  39.7944 -3.63768 -10.2437
LeftHand  -0.0301577 8.61904 0.59172
RightShoulder  -0.673605 -5.44529 28.0059
RightArm  9.34304 -8.29557 43.5065
RightForeArm  14.3904 10.7881 4.9864
RightHand  -0.0446129 5.19192 -0.806443
LeftUpLeg  5.97241 -2.89016 6.5534
LeftLeg  25.1549 -5.7595 -2.61437
LeftFoot  -18.2183 -0.296275 -6.69068
LeftToes  1.648e-009 -9.21574e-011 2.55256e-011
1447
root  17.7286 38.2209 -13.3463 -10.5775 -69.6108 4.7926
RightUpLeg  -13.8811 -11.9254 -10.4153
RightLeg  11.0143 6.23858 1.10382
RightFoot  6.8583 -1.26246 8.1693
RightToes  -8.14909e-010 0 -3.6325e-017
Spine  8.8566 -0.944514 2.8883
Spine1  4.7385 0.252286 -3.92831
HEad  -11.4003 0.986511 -5.79741
LeftShoulder1  -0.247111 4.15795 -31.6193
LeftArm  -0.688573 -14.8873 -56.7583
LeftForeArm  38.5603 -4.06418 -9.82744
LeftHand  -0.0251607 8.45175 0.744563
RightShoulder  -0.690178 -5.48158 28.2181
RightArm  11.4317 -5.51481 44.3339
RightForeArm  13.2168 12.0477 5.44588
RightHand  -0.105443 5.56794 -1.43227
LeftUpLeg  4.79268 -1.8284 4.05481
LeftLeg  23.6937 -5.01165 -2.07336
LeftFoot  -19.1093 -0.0997768 -3.13849
LeftToes  1.648e-009 -9.21574e-011 2.55256e-011
